<?xml version="1.0" standalone="no"?>
<!DOCTYPE svg PUBLIC "-//W3C//DTD SVG 20010904//EN"
 "http://www.w3.org/TR/2001/REC-SVG-20010904/DTD/svg10.dtd">
<svg version="1.0" xmlns="http://www.w3.org/2000/svg"
 width="256.000000pt" height="256.000000pt" viewBox="0 0 256.000000 256.000000"
 preserveAspectRatio="xMidYMid meet">
<metadata>
Created by potrace 1.11, written by Peter Selinger 2001-2013
</metadata>
<g transform="translate(0.000000,256.000000) scale(0.100000,-0.100000)"
fill="#000000" stroke="none">
<path d="M1102 2105 c-81 -18 -158 -54 -203 -93 -83 -72 -119 -207 -85 -312
l17 -51 -42 -137 c-22 -75 -48 -143 -57 -149 -9 -7 -39 -13 -66 -13 -74 -1
-196 -25 -252 -49 -92 -41 -143 -114 -144 -203 0 -73 39 -257 67 -317 34 -70
87 -122 154 -150 l55 -23 11 -83 c15 -107 51 -182 125 -255 120 -119 256 -159
558 -167 183 -5 202 -3 308 21 141 32 230 75 304 148 77 74 117 160 125 263 5
62 9 75 23 75 9 0 44 14 78 31 102 51 146 123 181 298 36 181 26 247 -49 315
-45 41 -119 70 -222 86 -55 9 -79 17 -82 29 -3 9 -15 86 -26 171 -36 266 -64
358 -135 446 -41 50 -130 98 -210 114 -98 19 -359 22 -433 5z m341 -781 c-49
-17 -81 -42 -122 -95 -18 -24 -39 -44 -46 -44 -7 0 -28 20 -47 45 -65 85 -112
105 -290 121 -61 5 -113 11 -115 13 -3 3 65 235 73 248 2 4 135 -57 294 -134
l290 -142 -37 -12z m-433 -84 c66 -13 82 -27 123 -109 28 -57 32 -75 31 -136
-1 -39 -7 -89 -13 -112 -16 -57 -81 -114 -165 -141 -78 -26 -269 -46 -348 -37
-50 6 -62 12 -89 43 -86 98 -107 268 -47 385 39 77 66 106 106 110 81 8 353 6
402 -3z m721 -26 c39 -19 73 -33 76 -30 2 2 -1 14 -7 27 l-12 22 28 -20 c16
-12 62 -52 102 -91 71 -68 73 -69 94 -52 l21 17 -25 34 c-14 19 -35 53 -47 77
-21 41 -21 42 -2 42 28 0 87 -74 112 -139 16 -45 20 -73 17 -141 -4 -95 -24
-149 -82 -216 l-34 -39 -133 2 c-151 1 -252 19 -328 57 -60 31 -75 51 -96 131
-21 78 -12 156 25 232 39 78 64 105 108 113 77 16 111 11 183 -26z m-412 -412
c61 -119 215 -184 475 -199 l119 -6 -7 -60 c-8 -82 -45 -158 -105 -216 -61
-59 -130 -93 -248 -124 -77 -19 -113 -22 -283 -21 -306 1 -435 38 -548 159
-65 69 -89 122 -94 210 l-3 50 122 7 c344 20 488 110 519 323 l7 50 13 -67 c7
-37 22 -85 33 -106z"/>
<path d="M805 1094 c-46 -49 -45 -132 2 -178 60 -60 143 -8 143 89 0 97 -88
151 -145 89z m105 -25 c13 -24 6 -54 -11 -44 -13 9 -28 47 -22 58 8 13 22 7
33 -14z"/>
<path d="M1625 1094 c-78 -84 1 -244 96 -194 56 31 66 153 15 197 -36 31 -81
30 -111 -3z m105 -23 c14 -28 13 -41 -5 -41 -16 0 -36 39 -28 53 8 13 22 8 33
-12z"/>
<path d="M1300 359 c-30 -10 -81 -21 -113 -24 -51 -6 -57 -9 -45 -22 29 -35
233 10 246 55 5 16 -20 13 -88 -9z"/>
</g>
</svg>
